<?xml version="1.0" encoding="UTF-8"?>
<svg version="1.1" xmlns="http://www.w3.org/2000/svg" width="128" height="128">
<path d="M0 0 C0.83397812 -0.0071553 1.66795624 -0.01431061 2.52720642 -0.02168274 C3.43892609 -0.02437164 4.35064575 -0.02706055 5.28999329 -0.02983093 C6.25293808 -0.03640213 7.21588287 -0.04297333 8.20800781 -0.04974365 C11.39980649 -0.06947902 14.59155807 -0.0811406 17.78340149 -0.09111023 C18.8739213 -0.09518576 19.96444111 -0.09926128 21.08800697 -0.10346031 C26.86138851 -0.12432332 32.63474627 -0.13862335 38.40815735 -0.147995 C44.36558216 -0.15905225 50.32263272 -0.19344395 56.27992535 -0.23316669 C60.86538375 -0.25933961 65.45075315 -0.26768752 70.03627968 -0.27127647 C72.23186072 -0.27614164 74.42743781 -0.28775357 76.62294579 -0.30631447 C79.70106324 -0.33071677 82.77821454 -0.32973846 85.85639954 -0.32279968 C87.2087973 -0.34201477 87.2087973 -0.34201477 88.58851624 -0.36161804 C94.49423714 -0.31326367 98.96573514 0.80352974 103.89668274 4.14717102 C108.59104558 9.08227042 109.05095615 13.13828411 109.08955383 19.70454407 C109.10182007 20.85635414 109.10182007 20.85635414 109.11433411 22.03143311 C109.13915469 24.5739108 109.15569756 27.11633269 109.17012024 29.65888977 C109.17544392 30.52875834 109.18076759 31.3986269 109.18625259 32.29485512 C109.21297258 36.90113569 109.23234919 41.50738931 109.2467804 46.11372375 C109.26010737 49.91898197 109.28793833 53.72370238 109.32881165 57.52876282 C109.37822748 62.12938888 109.40291259 66.72952798 109.41000748 71.3304081 C109.41670483 73.07944364 109.43188734 74.82846897 109.45589828 76.57735252 C109.67598695 93.58114681 109.67598695 93.58114681 103.89668274 100.14717102 C98.58754577 104.16139653 93.63072551 104.28795759 87.16011047 104.2414093 C85.54971333 104.23862107 83.93931597 104.23595139 82.32891846 104.23338318 C81.04867452 104.22880789 81.04867452 104.22880789 79.74256706 104.22414017 C75.16304004 104.21268977 70.5836062 104.23336452 66.00410461 104.24873352 C60.20338518 104.26684509 54.40318716 104.27617895 48.60249329 104.2467804 C26.84376105 104.1470239 6.82852634 104.38523511 -13.97354126 111.51847839 C-16.10331726 112.14717102 -16.10331726 112.14717102 -19.10331726 112.14717102 C-18.99870682 111.08531837 -18.99870682 111.08531837 -18.89198303 110.00201416 C-18.06608944 100.669563 -17.94039114 91.39255613 -17.90408707 82.02922249 C-17.89212537 79.21625308 -17.87263966 76.40342567 -17.85096741 73.59051514 C-17.78986977 65.60334471 -17.7351578 57.61620011 -17.70195007 49.62886047 C-17.6809997 44.71838947 -17.64571943 39.80819763 -17.60119247 34.89788628 C-17.58706463 33.03564163 -17.57831732 31.17334784 -17.57513809 29.31105232 C-17.57022495 26.7125882 -17.54706519 24.11486833 -17.51982117 21.51655579 C-17.52433037 20.37330338 -17.52433037 20.37330338 -17.52893066 19.20695496 C-17.4415222 13.58817382 -16.22687553 9.44930124 -12.38456726 5.28388977 C-11.79675476 4.80564758 -11.20894226 4.3274054 -10.60331726 3.83467102 C-10.01550476 3.34353821 -9.42769226 2.8524054 -8.82206726 2.34638977 C-5.94452813 0.33865224 -3.40180464 0.02007177 0 0 Z " fill="#000000" transform="translate(19.103317260742188,12.852828979492188)"/>
<path d="M0 0 C0.83397812 -0.0071553 1.66795624 -0.01431061 2.52720642 -0.02168274 C3.43892609 -0.02437164 4.35064575 -0.02706055 5.28999329 -0.02983093 C6.25293808 -0.03640213 7.21588287 -0.04297333 8.20800781 -0.04974365 C11.39980649 -0.06947902 14.59155807 -0.0811406 17.78340149 -0.09111023 C18.8739213 -0.09518576 19.96444111 -0.09926128 21.08800697 -0.10346031 C26.86138851 -0.12432332 32.63474627 -0.13862335 38.40815735 -0.147995 C44.36558216 -0.15905225 50.32263272 -0.19344395 56.27992535 -0.23316669 C60.86538375 -0.25933961 65.45075315 -0.26768752 70.03627968 -0.27127647 C72.23186072 -0.27614164 74.42743781 -0.28775357 76.62294579 -0.30631447 C79.70106324 -0.33071677 82.77821454 -0.32973846 85.85639954 -0.32279968 C87.2087973 -0.34201477 87.2087973 -0.34201477 88.58851624 -0.36161804 C94.49423714 -0.31326367 98.96573514 0.80352974 103.89668274 4.14717102 C108.59104558 9.08227042 109.05095615 13.13828411 109.08955383 19.70454407 C109.10182007 20.85635414 109.10182007 20.85635414 109.11433411 22.03143311 C109.13915469 24.5739108 109.15569756 27.11633269 109.17012024 29.65888977 C109.17544392 30.52875834 109.18076759 31.3986269 109.18625259 32.29485512 C109.21297258 36.90113569 109.23234919 41.50738931 109.2467804 46.11372375 C109.26010737 49.91898197 109.28793833 53.72370238 109.32881165 57.52876282 C109.37822748 62.12938888 109.40291259 66.72952798 109.41000748 71.3304081 C109.41670483 73.07944364 109.43188734 74.82846897 109.45589828 76.57735252 C109.67598695 93.58114681 109.67598695 93.58114681 103.89668274 100.14717102 C98.58754577 104.16139653 93.63072551 104.28795759 87.16011047 104.2414093 C85.54971333 104.23862107 83.93931597 104.23595139 82.32891846 104.23338318 C81.04867452 104.22880789 81.04867452 104.22880789 79.74256706 104.22414017 C75.16304004 104.21268977 70.5836062 104.23336452 66.00410461 104.24873352 C60.20338518 104.26684509 54.40318716 104.27617895 48.60249329 104.2467804 C26.84376105 104.1470239 6.82852634 104.38523511 -13.97354126 111.51847839 C-16.10331726 112.14717102 -16.10331726 112.14717102 -19.10331726 112.14717102 C-18.99870682 111.08531837 -18.99870682 111.08531837 -18.89198303 110.00201416 C-18.06608944 100.669563 -17.94039114 91.39255613 -17.90408707 82.02922249 C-17.89212537 79.21625308 -17.87263966 76.40342567 -17.85096741 73.59051514 C-17.78986977 65.60334471 -17.7351578 57.61620011 -17.70195007 49.62886047 C-17.6809997 44.71838947 -17.64571943 39.80819763 -17.60119247 34.89788628 C-17.58706463 33.03564163 -17.57831732 31.17334784 -17.57513809 29.31105232 C-17.57022495 26.7125882 -17.54706519 24.11486833 -17.51982117 21.51655579 C-17.52433037 20.37330338 -17.52433037 20.37330338 -17.52893066 19.20695496 C-17.4415222 13.58817382 -16.22687553 9.44930124 -12.38456726 5.28388977 C-11.79675476 4.80564758 -11.20894226 4.3274054 -10.60331726 3.83467102 C-10.01550476 3.34353821 -9.42769226 2.8524054 -8.82206726 2.34638977 C-5.94452813 0.33865224 -3.40180464 0.02007177 0 0 Z M-5.10331726 15.14717102 C-5.38381068 17.84804871 -5.48240947 20.31551616 -5.44389343 23.01509094 C-5.44433151 23.81532181 -5.44476959 24.61555267 -5.44522095 25.44003296 C-5.44313023 28.08614974 -5.4197862 30.73163362 -5.39628601 33.37763977 C-5.39069105 35.21180882 -5.38642048 37.04598234 -5.38342285 38.88015747 C-5.37196617 43.70864735 -5.34249191 48.53686668 -5.30931091 53.36524963 C-5.27862777 58.29186849 -5.26492127 63.21853104 -5.24980164 68.1452179 C-5.217623 77.8126545 -5.16641669 87.47989027 -5.10331726 97.14717102 C-4.24945435 96.86426712 -3.39559143 96.58136322 -2.51585388 96.28988647 C7.43172145 93.28538999 16.59003784 92.58222 26.94739532 92.63075066 C29.69696103 92.64357208 32.44555108 92.63192485 35.19508362 92.61471558 C40.02711475 92.58826611 44.85889857 92.58241156 49.69099426 92.58381653 C57.46508285 92.58606402 65.23887086 92.57199489 73.01284027 92.52823067 C75.72019433 92.51839506 78.42707056 92.52709843 81.13441467 92.53692627 C82.78401507 92.53078666 84.43361284 92.52387648 86.08320618 92.5160675 C86.83431671 92.52378677 87.58542725 92.53150604 88.35929871 92.53945923 C91.15793094 92.51202045 93.37607664 92.43170496 95.86076355 91.07371521 C97.48689751 88.04952283 97.27869265 85.36705462 97.28486633 81.9535675 C97.29012329 81.22482422 97.29538025 80.49608093 97.30079651 79.74525452 C97.31400254 77.33604005 97.30525761 74.92748597 97.29512024 72.51826477 C97.29714059 70.8458239 97.30005171 69.17338389 97.30381775 67.50094604 C97.30824172 63.99629832 97.30180699 60.49187998 97.28779602 56.98725891 C97.27069073 52.48877207 97.28055312 47.99082162 97.29851341 43.49235439 C97.30933809 40.03944839 97.30591124 36.58667024 97.29813004 33.13376045 C97.29612506 31.47471618 97.2985977 29.8156604 97.3055687 28.15662956 C97.31316324 25.84123208 97.30160877 23.5267119 97.28486633 21.21138 C97.28128616 19.23306435 97.28128616 19.23306435 97.27763367 17.21478271 C97.15191986 16.20247086 97.02620605 15.190159 96.89668274 14.14717102 C92.90790805 11.4879879 89.4225529 11.85950656 84.79121399 11.87251282 C83.85925201 11.86740189 82.92729004 11.86229095 81.96708679 11.85702515 C78.88105378 11.84310481 75.79524345 11.84408758 72.70918274 11.84638977 C70.56831275 11.84250454 68.42744353 11.83817023 66.28657532 11.83340454 C61.79753623 11.82593733 57.30857579 11.82623751 52.8195343 11.83149719 C47.05895731 11.83729623 41.29870137 11.82035264 35.53817749 11.79715252 C31.11675628 11.78244228 26.6954129 11.78153972 22.27397156 11.78466225 C20.14963647 11.78414779 18.02529716 11.77888692 15.90098572 11.76885033 C12.93449339 11.75655409 9.96863321 11.76323632 7.00215149 11.77485657 C6.11997955 11.76721283 5.23780762 11.75956909 4.3289032 11.75169373 C3.5213559 11.75870804 2.71380859 11.76572235 1.88179016 11.77294922 C1.18051498 11.77278148 0.47923981 11.77261374 -0.24328613 11.77244091 C-2.71596471 12.27059769 -3.60016277 13.14797878 -5.10331726 15.14717102 Z " fill="#FFFFFF" transform="translate(19.103317260742188,12.852828979492188)"/>
<path d="M0 0 C3.94377839 1.57751136 7.4592138 3.24390896 11.17578125 5.2578125 C12.33271484 5.88300781 13.48964844 6.50820313 14.68164062 7.15234375 C15.89195902 7.80983705 17.10224507 8.46738988 18.3125 9.125 C19.54218334 9.79061287 20.77199975 10.45597998 22.00195312 11.12109375 C25.00261946 12.74498376 28.00190626 14.37136671 31 16 C31.47539606 19.77015486 31.66286015 23.24467942 31 27 C28.81052605 29.57473454 26.04441882 30.63152809 23 32 C21.1409419 33.026624 19.28837044 34.06505555 17.44140625 35.11328125 C15.48316586 36.18224703 13.52350704 37.24861813 11.5625 38.3125 C10.55767578 38.86228516 9.55285156 39.41207031 8.51757812 39.97851562 C1.12903727 44 1.12903727 44 0 44 C0 40.04 0 36.08 0 32 C5.94 28.7 11.88 25.4 18 22 C12.06 18.7 6.12 15.4 0 12 C0 8.04 0 4.08 0 0 Z " fill="#FFFFFF" transform="translate(28,41)"/>
<path d="M0 0 C1.34888732 0.00015905 2.69778075 0.00584927 4.04663086 0.01586914 C5.10991859 0.01799156 5.10991859 0.01799156 6.19468689 0.02015686 C8.46699173 0.02577096 10.73919936 0.03832576 13.01147461 0.05102539 C14.54858257 0.05603858 16.08569206 0.0606018 17.62280273 0.06469727 C21.39823103 0.07574497 25.17358632 0.09301898 28.94897461 0.11352539 C28.94897461 3.74352539 28.94897461 7.37352539 28.94897461 11.11352539 C18.05897461 11.11352539 7.16897461 11.11352539 -4.05102539 11.11352539 C-4.05102539 0.15073432 -4.05102539 0.15073432 0 0 Z " fill="#FFFFFF" transform="translate(71.051025390625,77.886474609375)"/>
</svg>
