<?xml version="1.0" encoding="UTF-8"?>
<svg version="1.1" xmlns="http://www.w3.org/2000/svg" width="177" height="177">
<path d="M0 0 C1.9573558 -0.00788544 1.9573558 -0.00788544 3.95425415 -0.01593018 C7.51839852 -0.02955583 11.08228109 -0.02432461 14.64642978 -0.01479292 C18.38628744 -0.00716996 22.12612346 -0.01424938 25.86598206 -0.01895142 C32.14620973 -0.024402 38.42633141 -0.01723644 44.70654297 -0.00292969 C51.95306732 0.01338843 59.19933832 0.00811171 66.44585651 -0.0084089 C72.6813372 -0.02205222 78.9167419 -0.02392935 85.15223271 -0.0160929 C88.87031869 -0.01143106 92.58828585 -0.01075014 96.30636406 -0.02070236 C100.45439362 -0.03103071 104.60199116 -0.01668833 108.75 0 C109.97259018 -0.00607269 111.19518036 -0.01214539 112.45481873 -0.0184021 C121.30996852 0.04749377 128.6596259 1.18284333 135.27716064 7.53761292 C141.2905501 14.23112093 141.49268011 22.0623489 141.33032227 30.64208984 C141.32466248 31.78354965 141.31900269 32.92500946 141.31317139 34.10105896 C141.29092476 37.71804167 141.24074833 41.33400435 141.18969727 44.95068359 C141.16961722 47.41486191 141.1513691 49.87905589 141.13500977 52.34326172 C141.09109805 58.35862388 141.02215035 64.37323127 140.93969727 70.38818359 C135.32969727 70.38818359 129.71969727 70.38818359 123.93969727 70.38818359 C123.91782349 68.18521606 123.91782349 68.18521606 123.89550781 65.93774414 C123.83760914 60.49755293 123.76037562 55.05777931 123.67724609 49.61791992 C123.64395707 47.26186898 123.61593766 44.90573753 123.59326172 42.54956055 C123.55978924 39.16599153 123.50747635 35.78316305 123.45141602 32.39990234 C123.44183113 30.81540535 123.44183113 30.81540535 123.43205261 29.19889832 C123.41225845 28.21810806 123.39246429 27.23731781 123.37207031 26.22680664 C123.36096725 25.36298874 123.3498642 24.49917084 123.33842468 23.60917664 C122.83890792 20.82676636 122.16830168 20.0983862 119.93969727 18.38818359 C117.47718925 17.93615238 117.47718925 17.93615238 114.66381836 18.00723267 C113.57018982 17.99877319 112.47656128 17.99031372 111.34979248 17.9815979 C109.54964691 17.99070694 109.54964691 17.99070694 107.71313477 18 C105.8177597 17.99211456 105.8177597 17.99211456 103.88409424 17.98406982 C100.41715128 17.97038157 96.95047584 17.97570092 93.48352814 17.98520708 C89.85741956 17.99279594 86.23133407 17.98576023 82.60522461 17.98104858 C76.51550173 17.97558876 70.42588796 17.98278853 64.33618164 17.99707031 C57.29299616 18.01339735 50.25007118 18.00810899 43.20689201 17.9915911 C37.16265061 17.97798263 31.11848769 17.97605341 25.07423592 17.9839071 C21.46300104 17.98858718 17.85188866 17.98919941 14.24066162 17.97929764 C10.21570373 17.96903259 6.19119583 17.98325483 2.16625977 18 C0.96616272 17.99392731 -0.23393433 17.98785461 -1.47039795 17.9815979 C-2.56402649 17.99005737 -3.65765503 17.99851685 -4.78442383 18.00723267 C-6.21242813 18.00892928 -6.21242813 18.00892928 -7.66928101 18.01066017 C-10.09173077 18.21453805 -10.09173077 18.21453805 -11.8651247 19.64742565 C-13.34378454 21.80107037 -13.44303201 23.01996387 -13.45903015 25.6212616 C-13.4715683 26.4836293 -13.48410645 27.34599701 -13.49702454 28.23449707 C-13.49558945 29.17748657 -13.49415436 30.12047607 -13.49267578 31.09204102 C-13.50286743 32.08734329 -13.51305908 33.08264557 -13.52355957 34.10810852 C-13.55379358 37.40334628 -13.56297152 40.69829386 -13.57202148 43.99365234 C-13.58886043 46.27623977 -13.60700959 48.55881787 -13.62641907 50.84138489 C-13.67401023 56.85339446 -13.70376069 62.86536626 -13.7298584 68.87750244 C-13.75961792 75.01069602 -13.80616403 81.14375933 -13.85131836 87.27685547 C-13.93745523 99.31389684 -14.00475434 111.35096494 -14.06030273 123.38818359 C-12.86507996 122.96185638 -11.66985718 122.53552917 -10.43841553 122.09628296 C2.4262335 117.73759307 13.85411942 116.57060815 27.36157227 116.80224609 C29.32837611 116.81347762 31.29519708 116.821999 33.26202393 116.82797241 C38.36518132 116.85056011 43.46726548 116.90921243 48.57000732 116.97619629 C53.80637098 117.03827905 59.0429131 117.06512635 64.27954102 117.09521484 C74.50005706 117.15899432 84.71978692 117.26099471 94.93969727 117.38818359 C94.79756429 119.28429794 94.6508282 121.18006754 94.50219727 123.07568359 C94.38038086 124.65929687 94.38038086 124.65929687 94.25610352 126.27490234 C93.97518045 129.03904656 93.53812875 131.677641 92.93969727 134.38818359 C91.97838394 134.37628494 91.01707062 134.36438629 90.02662659 134.35212708 C77.85179357 134.21090937 65.67779244 134.16876412 53.50219727 134.20068359 C52.53931038 134.20314465 51.57642349 134.2056057 50.58435822 134.20814133 C22.74920782 134.30930023 -3.12235757 135.2083053 -29.40258789 145.39428711 C-32.06030273 146.38818359 -32.06030273 146.38818359 -34.06030273 146.38818359 C-33.91788625 144.03376644 -33.77145465 141.67970876 -33.62280273 139.32568359 C-33.5415918 138.01470703 -33.46038086 136.70373047 -33.37670898 135.35302734 C-33.06030273 131.38818359 -33.06030273 131.38818359 -32.5493927 128.29600525 C-31.94581017 123.47338971 -31.91579099 118.75305532 -31.91845703 113.89819336 C-31.91324539 112.35048752 -31.91324539 112.35048752 -31.90792847 110.77151489 C-31.90059991 108.53989254 -31.89523915 106.30826303 -31.8916378 104.07663155 C-31.88444315 100.54109481 -31.86875541 97.00569451 -31.85029602 93.47019958 C-31.79795782 83.42098826 -31.74983751 73.37185458 -31.734375 63.32250977 C-31.72428544 57.16754674 -31.69494169 51.01293195 -31.65305519 44.85810661 C-31.64076073 42.51744153 -31.63562108 40.17672726 -31.63785362 37.83603096 C-31.64021058 34.55949911 -31.61801072 31.28396516 -31.59033203 28.00756836 C-31.59693344 27.04679886 -31.60353485 26.08602936 -31.6103363 25.09614563 C-31.51350468 18.0968928 -29.93850895 12.80311824 -25.38452148 7.39990234 C-24.5743457 6.74441406 -24.5743457 6.74441406 -23.74780273 6.07568359 C-23.21541992 5.62580078 -22.68303711 5.17591797 -22.13452148 4.71240234 C-14.79808906 0.02869125 -8.56120626 -0.04245383 0 0 Z " fill="#FFF6FE" transform="translate(35.060302734375,21.61181640625)"/>
<path d="M0 0 C0.91311501 2.99677377 1.0188828 5.21899816 0.56274414 8.30957031 C0.4425441 9.15013977 0.32234406 9.99070923 0.19850159 10.85675049 C-0.00610435 12.20383087 -0.00610435 12.20383087 -0.21484375 13.578125 C-0.34943497 14.5046991 -0.48402618 15.43127319 -0.62269592 16.38592529 C-1.05374147 19.34172848 -1.49547752 22.29582044 -1.9375 25.25 C-2.23182583 27.25510482 -2.52545403 29.26031218 -2.81835938 31.265625 C-3.53618362 36.17855239 -4.26844216 41.08902044 -5 46 C4.9 46 14.8 46 25 46 C23.54877547 49.62806134 22.12455815 52.74228784 20.234375 56.11328125 C19.68072266 57.10255615 19.12707031 58.09183105 18.55664062 59.11108398 C17.96044922 60.16755127 17.36425781 61.22401855 16.75 62.3125 C16.13318359 63.40957275 15.51636719 64.50664551 14.88085938 65.63696289 C8.37916122 77.16397308 1.72940357 88.60457125 -5 100 C-5.56203125 100.9605127 -6.1240625 101.92102539 -6.703125 102.91064453 C-7.51523438 104.28712158 -7.51523438 104.28712158 -8.34375 105.69140625 C-8.83037109 106.51970947 -9.31699219 107.3480127 -9.81835938 108.20141602 C-10.40327148 109.09171509 -10.40327148 109.09171509 -11 110 C-11.33 110 -11.66 110 -12 110 C-11.41173235 99.78066354 -10.0248865 89.78955259 -8.4375 79.6875 C-8.20072313 78.1569704 -7.96439236 76.62637171 -7.72851562 75.09570312 C-7.15827895 71.39616768 -6.57898163 67.69821845 -6 64 C-15.9 64 -25.8 64 -36 64 C-34.54877547 60.37193866 -33.12455815 57.25771216 -31.234375 53.88671875 C-30.40389648 52.4028064 -30.40389648 52.4028064 -29.55664062 50.88891602 C-28.96044922 49.83244873 -28.36425781 48.77598145 -27.75 47.6875 C-27.13318359 46.59042725 -26.51636719 45.49335449 -25.88085938 44.36303711 C-17.46943197 29.45022401 -8.83782802 14.6640268 0 0 Z " fill="#FFF6FE" transform="translate(147,54)"/>
<path d="M0 0 C3.41108719 0.8527718 5.75415889 1.77485233 8.82421875 3.37109375 C9.76322021 3.85731201 10.70222168 4.34353027 11.66967773 4.84448242 C15.79233608 7.02070973 19.89657128 9.23084532 24.00195312 11.43945312 C26.73433529 12.86171589 29.48860615 14.15826129 32.296875 15.421875 C41.30417825 19.69056946 41.30417825 19.69056946 44 23 C45.88121294 28.58232329 45.00834065 34.31902197 44 40 C43.2251123 40.4125 42.45022461 40.825 41.65185547 41.25 C38.05841409 43.16450779 34.46633517 45.08154502 30.875 47 C30.23395325 47.34225616 29.59290649 47.68451233 28.93243408 48.03713989 C20.62724958 52.4746024 12.37332248 56.97250014 4.2734375 61.77734375 C2 63 2 63 0 63 C0 57.06 0 51.12 0 45 C7.90446316 40.42781052 15.76123353 35.94853324 24 32 C21.19733628 29.80795679 18.35736581 28.00241086 15.234375 26.30078125 C13.90019531 25.57084961 13.90019531 25.57084961 12.5390625 24.82617188 C11.61867188 24.32666016 10.69828125 23.82714844 9.75 23.3125 C8.81414063 22.80138672 7.87828125 22.29027344 6.9140625 21.76367188 C4.61089325 20.50632948 2.30564761 19.25279192 0 18 C0 12.06 0 6.12 0 0 Z " fill="#FFF6FE" transform="translate(38,55)"/>
<path d="M0 0 C0.33 0 0.66 0 1 0 C1.08755672 4.35403865 1.14057969 8.70784877 1.1875 13.0625 C1.21263672 14.29162109 1.23777344 15.52074219 1.26367188 16.78710938 C1.33954196 26.16971045 0.23601338 32.34519817 -6.203125 39.421875 C-10.6375164 43.31642745 -15.68183061 45.21877521 -21.5625 45.25 C-22.696875 45.1675 -23.83125 45.085 -25 45 C-23.74315339 40.88339382 -22.21817614 37.35477858 -20.0234375 33.65625 C-19.43844482 32.66310791 -18.85345215 31.66996582 -18.25073242 30.64672852 C-17.63174072 29.60830811 -17.01274902 28.5698877 -16.375 27.5 C-15.10756107 25.35316668 -13.84063182 23.20603238 -12.57421875 21.05859375 C-11.9611084 20.02202637 -11.34799805 18.98545898 -10.71630859 17.91748047 C-7.87207201 13.08268287 -5.11241029 8.20130693 -2.35546875 3.31640625 C-1 1 -1 1 0 0 Z " fill="#FFF6FE" transform="translate(175,111)"/>
</svg>
