<?xml version="1.0" encoding="UTF-8"?>
<svg version="1.1" xmlns="http://www.w3.org/2000/svg" width="177" height="177">
<path d="M0 0 C1.9573558 -0.00788544 1.9573558 -0.00788544 3.95425415 -0.01593018 C7.51839852 -0.02955583 11.08228109 -0.02432461 14.64642978 -0.01479292 C18.38628744 -0.00716996 22.12612346 -0.01424938 25.86598206 -0.01895142 C32.14620973 -0.024402 38.42633141 -0.01723644 44.70654297 -0.00292969 C51.95306732 0.01338843 59.19933832 0.00811171 66.44585651 -0.0084089 C72.6813372 -0.02205222 78.9167419 -0.02392935 85.15223271 -0.0160929 C88.87031869 -0.01143106 92.58828585 -0.01075014 96.30636406 -0.02070236 C100.45439362 -0.03103071 104.60199116 -0.01668833 108.75 0 C109.97259018 -0.00607269 111.19518036 -0.01214539 112.45481873 -0.0184021 C121.31916441 0.0475622 128.63858897 1.19313265 135.27759457 7.52844429 C140.6245032 13.51114087 141.52692536 20.57254606 141.44140625 28.29492188 C141.44951073 29.71380203 141.44951073 29.71380203 141.45777893 31.16134644 C141.47019706 34.26072321 141.45382361 37.3591586 141.43579102 40.45849609 C141.43594614 42.62604826 141.43743731 44.79360071 141.44020081 46.96115112 C141.44158162 51.49180443 141.4290777 56.02213994 141.40625 60.55273438 C141.37783263 66.35089645 141.38061633 72.14853225 141.39334011 77.94673347 C141.40030388 82.41808545 141.39250053 86.8893164 141.38008308 91.36065292 C141.37557779 93.49841726 141.3752237 95.63619463 141.37914848 97.77396011 C141.38206838 100.7629881 141.36551728 103.75129737 141.34375 106.74023438 C141.35050247 108.05583344 141.35050247 108.05583344 141.35739136 109.39801025 C141.26466987 117.08564471 139.13028772 123.00461155 133.79580688 128.69627476 C127.54618579 134.39302297 120.18764012 134.94561705 112.10375977 134.75952148 C111.05639648 134.75218994 110.0090332 134.7448584 108.92993164 134.73730469 C106.6628641 134.71991176 104.39584967 134.69387501 102.12896729 134.66008186 C98.49580338 134.60988804 94.86371127 134.59136876 91.23022461 134.58189392 C80.9010264 134.55209225 70.57272739 134.49000213 60.24438477 134.35083008 C28.95919611 133.95189598 0.76983027 135.1724977 -29.00585938 145.39329529 C-32.06030273 146.38818359 -32.06030273 146.38818359 -34.06030273 146.38818359 C-33.91788625 144.03376644 -33.77145465 141.67970876 -33.62280273 139.32568359 C-33.5415918 138.01470703 -33.46038086 136.70373047 -33.37670898 135.35302734 C-33.06030273 131.38818359 -33.06030273 131.38818359 -32.5493927 128.29600525 C-31.94581017 123.47338971 -31.91579099 118.75305532 -31.91845703 113.89819336 C-31.91324539 112.35048752 -31.91324539 112.35048752 -31.90792847 110.77151489 C-31.90059991 108.53989254 -31.89523915 106.30826303 -31.8916378 104.07663155 C-31.88444315 100.54109481 -31.86875541 97.00569451 -31.85029602 93.47019958 C-31.79795782 83.42098826 -31.74983751 73.37185458 -31.734375 63.32250977 C-31.72428544 57.16754674 -31.69494169 51.01293195 -31.65305519 44.85810661 C-31.64076073 42.51744153 -31.63562108 40.17672726 -31.63785362 37.83603096 C-31.64021058 34.55949911 -31.61801072 31.28396516 -31.59033203 28.00756836 C-31.59693344 27.04679886 -31.60353485 26.08602936 -31.6103363 25.09614563 C-31.51350468 18.0968928 -29.93850895 12.80311824 -25.38452148 7.39990234 C-24.5743457 6.74441406 -24.5743457 6.74441406 -23.74780273 6.07568359 C-23.21541992 5.62580078 -22.68303711 5.17591797 -22.13452148 4.71240234 C-14.79808906 0.02869125 -8.56120626 -0.04245383 0 0 Z M-14.06030273 21.38818359 C-14.641099 23.48419549 -14.641099 23.48419549 -14.5413208 25.74151611 C-14.54681946 26.60525848 -14.55231812 27.46900085 -14.5579834 28.35891724 C-14.54360229 29.29831146 -14.52922119 30.23770569 -14.5144043 31.20556641 C-14.5149884 32.20101471 -14.51557251 33.19646301 -14.51617432 34.22207642 C-14.51338773 37.51217526 -14.48226769 40.80136802 -14.45092773 44.09130859 C-14.44346741 46.37245183 -14.4377735 48.65360148 -14.43377686 50.93475342 C-14.41850423 56.93873794 -14.37920788 62.9423354 -14.33496094 68.94616699 C-14.29404365 75.07261926 -14.27577338 81.19913407 -14.25561523 87.32568359 C-14.21271562 99.34668698 -14.14444419 111.3674031 -14.06030273 123.38818359 C-9.61678913 122.86514789 -5.89190148 122.00799028 -1.75195312 120.35498047 C8.02484431 117.2803793 18.14952644 117.85399816 28.30426216 117.90232849 C32.06620599 117.91971131 35.82738983 117.91201945 39.58934021 117.89807129 C47.56034761 117.87285158 55.53118016 117.87803157 63.50219727 117.88818359 C72.77415664 117.89995908 82.04570272 117.8986521 91.3176403 117.86412048 C95.02492425 117.85701728 98.73162053 117.87370692 102.43885803 117.89123535 C104.70159221 117.885531 106.96432395 117.87871545 109.22705078 117.87060547 C110.25823029 117.88192001 111.28940979 117.89323456 112.35183716 117.90489197 C117.70002064 117.86786788 117.70002064 117.86786788 122.57688904 115.91027832 C124.58131807 112.20076161 124.49692384 108.6635539 124.45727539 104.55224609 C124.46428467 103.66075867 124.47129395 102.76927124 124.47851562 101.85076904 C124.4961176 98.90459016 124.48446502 95.9593722 124.47094727 93.01318359 C124.47364154 90.96581844 124.47752343 88.91845452 124.48254395 86.87109375 C124.48844198 82.58044247 124.47986606 78.29012429 124.46118164 73.99951172 C124.43839208 68.49786871 124.45151351 62.99700621 124.4754715 57.49539185 C124.48992111 53.26776237 124.48532729 49.04031814 124.47496033 44.81268311 C124.47229073 42.78407702 124.47557095 40.75545416 124.48487854 38.72686768 C124.49503023 35.89216522 124.47956236 33.05872915 124.45727539 30.22412109 C124.46537231 29.38451843 124.47346924 28.54491577 124.48181152 27.67987061 C124.43158812 24.23427619 124.37701928 21.9596816 122.24478912 19.17325592 C119.43802271 16.99968482 118.06808772 16.88583472 114.55029297 16.88024902 C112.9099559 16.86333008 112.9099559 16.86333008 111.23648071 16.84606934 C109.44408463 16.85821472 109.44408463 16.85821472 107.61547852 16.87060547 C106.35335541 16.86359619 105.0912323 16.85658691 103.79086304 16.84936523 C100.33210756 16.83113636 96.87382955 16.83819716 93.41506577 16.85088158 C89.79476387 16.8610117 86.17450273 16.85161588 82.55419922 16.84533691 C76.47461612 16.83806051 70.39522741 16.84764788 64.31567383 16.86669922 C57.28775485 16.88846816 50.26030004 16.88141677 43.23239231 16.8593936 C37.19743916 16.84123926 31.16262571 16.83868137 25.12765408 16.84914827 C21.52363413 16.8553831 17.91983233 16.85621938 14.31582642 16.84300232 C10.29824349 16.8292976 6.28146023 16.84829379 2.26391602 16.87060547 C0.47151993 16.85846008 0.47151993 16.85846008 -1.35708618 16.84606934 C-2.45064423 16.85734863 -3.54420227 16.86862793 -4.67089844 16.88024902 C-5.62068069 16.88175713 -6.57046295 16.88326523 -7.54902649 16.88481903 C-10.85874506 17.54822476 -12.04279223 18.71877941 -14.06030273 21.38818359 Z " fill="#FFFFFF" transform="translate(35.060302734375,21.61181640625)"/>
<path d="M0 0 C3.41108719 0.8527718 5.75415889 1.77485233 8.82421875 3.37109375 C9.76322021 3.85731201 10.70222168 4.34353027 11.66967773 4.84448242 C15.79233608 7.02070973 19.89657128 9.23084532 24.00195312 11.43945312 C26.73433529 12.86171589 29.48860615 14.15826129 32.296875 15.421875 C41.30417825 19.69056946 41.30417825 19.69056946 44 23 C45.88121294 28.58232329 45.00834065 34.31902197 44 40 C43.2251123 40.4125 42.45022461 40.825 41.65185547 41.25 C38.05841409 43.16450779 34.46633517 45.08154502 30.875 47 C30.23395325 47.34225616 29.59290649 47.68451233 28.93243408 48.03713989 C20.62724958 52.4746024 12.37332248 56.97250014 4.2734375 61.77734375 C2 63 2 63 0 63 C0 57.06 0 51.12 0 45 C7.90446316 40.42781052 15.76123353 35.94853324 24 32 C21.19733628 29.80795679 18.35736581 28.00241086 15.234375 26.30078125 C13.90019531 25.57084961 13.90019531 25.57084961 12.5390625 24.82617188 C11.61867188 24.32666016 10.69828125 23.82714844 9.75 23.3125 C8.81414063 22.80138672 7.87828125 22.29027344 6.9140625 21.76367188 C4.61089325 20.50632948 2.30564761 19.25279192 0 18 C0 12.06 0 6.12 0 0 Z " fill="#FFFFFF" transform="translate(38,55)"/>
<path d="M0 0 C15.18 0 30.36 0 46 0 C46 5.28 46 10.56 46 16 C30.82 16 15.64 16 0 16 C0 10.72 0 5.44 0 0 Z " fill="#FFFFFF" transform="translate(92,107)"/>
</svg>
